<svg xmlns="http://www.w3.org/2000/svg" width="1280" height="160" viewBox="0 0 1280 160" preserveAspectRatio="xMidYMid meet">
  <g transform="translate(435.985748 10.000000) scale(0.240972151) translate(-165.410000 -230.410000)">
    <path d="M416.0,533.06 L370.0,533.19 L363.0,528.87 L320.0,452.65 L238.34,297.0 L227.0,276.68 L222.0,273.37 L219.0,274.54 L217.55,278.0 L218.09,315.0 L210.49,327.0 L218.31,335.0 L218.08,498.0 L222.51,518.0 L232.11,531.0 L228.0,533.51 L172.0,533.12 L165.41,531.0 L165.62,528.0 L175.13,515.0 L180.14,493.0 L180.11,265.0 L178.37,255.0 L173.75,243.0 L167.49,235.0 L168.0,231.3 L219.0,230.68 L220.09,232.0 L213.08,242.0 L214.52,245.0 L218.0,246.13 L222.58,245.0 L231.02,237.0 L237.0,237.76 L285.62,325.0 L337.17,423.0 L345.15,435.0 L353.9,454.0 L362.0,461.7 L365.0,460.12 L366.14,454.0 L366.21,258.0 L364.53,249.0 L355.09,237.0 L354.39,233.0 L358.0,230.59 L416.0,231.32 L416.47,235.0 L408.34,244.0 L404.17,254.0 L403.32,272.0 L403.54,499.0 L408.56,518.0 L418.03,529.0 L416.0,533.06 Z M622.0,533.03 L593.59,533.0 L571.0,529.37 L545.09,520.0 L517.0,503.58 L488.06,475.0 L476.0,458.34 L464.0,431.98 L455.82,400.0 L455.9,361.0 L461.09,338.0 L475.9,303.0 L487.93,286.0 L513.0,261.16 L524.0,253.14 L557.52,237.0 L580.06,231.0 L637.0,230.83 L652.0,234.27 L671.0,241.69 L700.0,259.85 L724.0,283.56 L736.87,301.0 L748.0,323.42 L757.88,357.0 L758.04,401.0 L753.99,423.0 L744.95,446.0 L729.73,471.0 L699.0,502.26 L684.0,512.28 L655.0,525.71 L622.0,533.03 Z M1022.0,533.09 L802.0,533.21 L795.69,531.0 L796.29,527.0 L805.45,516.0 L809.0,507.74 L810.01,499.0 L809.97,256.0 L807.36,247.0 L797.89,236.0 L798.6,231.0 L858.0,230.51 L862.49,234.0 L861.45,238.0 L851.49,249.0 L851.11,314.0 L841.21,327.0 L842.97,330.0 L849.8,332.0 L851.13,335.0 L850.99,477.0 L851.95,484.0 L855.51,490.0 L875.27,508.0 L895.0,513.29 L941.0,513.2 L954.0,510.15 L969.0,509.87 L999.0,503.27 L1024.0,495.11 L1027.89,500.0 L1028.25,528.0 L1027.0,531.25 L1022.0,533.09 Z M1214.0,532.39 L1209.0,530.19 L1201.05,513.0 L1186.85,475.0 L1109.42,290.0 L1090.06,249.0 L1080.8,237.0 L1080.55,233.0 L1082.52,231.0 L1159.87,232.0 L1152.34,246.0 L1150.96,253.0 L1151.57,275.0 L1157.72,300.0 L1202.26,424.0 L1211.31,443.0 L1216.0,445.72 L1222.61,442.0 L1227.58,430.0 L1279.49,280.0 L1283.97,254.0 L1278.8,243.0 L1271.7,236.0 L1271.48,232.0 L1275.0,230.43 L1333.0,230.63 L1338.52,233.0 L1338.09,236.0 L1326.0,250.92 L1314.0,274.48 L1220.75,520.0 L1216.69,530.0 L1214.0,532.39 Z M1515.0,533.09 L1485.0,532.33 L1479.0,529.89 L1471.0,529.59 L1448.0,520.49 L1429.84,508.0 L1410.23,479.0 L1400.83,447.0 L1401.16,259.0 L1397.7,242.0 L1394.14,234.0 L1395.88,231.0 L1440.29,232.0 L1432.89,245.0 L1432.86,388.0 L1433.03,428.0 L1436.25,447.0 L1440.41,458.0 L1452.0,478.07 L1469.0,491.14 L1482.0,496.62 L1504.0,501.31 L1534.0,497.78 L1550.0,490.34 L1564.61,478.0 L1576.0,457.02 L1581.06,436.0 L1581.01,250.0 L1576.44,233.0 L1580.0,230.83 L1617.0,230.41 L1620.3,232.0 L1612.75,264.0 L1613.06,451.0 L1605.95,477.0 L1594.15,495.0 L1575.0,513.76 L1548.23,526.0 L1515.0,533.09 Z M1775.0,533.03 L1754.0,532.74 L1706.0,519.95 L1682.0,502.18 L1673.85,487.0 L1673.26,443.0 L1676.0,438.7 L1679.0,440.94 L1685.58,462.0 L1700.93,484.0 L1719.0,496.53 L1742.0,504.01 L1775.0,504.16 L1797.0,497.22 L1809.0,488.32 L1816.43,478.0 L1823.28,459.0 L1822.97,445.0 L1815.83,432.0 L1805.0,420.69 L1780.0,402.27 L1753.0,390.8 L1752.28,387.0 L1757.76,380.0 L1757.0,375.88 L1747.0,377.19 L1739.0,382.89 L1732.41,382.0 L1712.0,369.54 L1699.63,358.0 L1686.97,339.0 L1681.0,321.69 L1676.44,299.0 L1680.64,282.0 L1687.0,268.51 L1696.49,254.0 L1712.44,242.0 L1726.0,235.35 L1741.0,230.96 L1790.0,231.12 L1825.0,241.47 L1838.21,248.0 L1840.99,254.0 L1841.09,283.0 L1839.0,287.21 L1835.54,286.0 L1819.0,270.63 L1798.0,258.03 L1783.0,253.8 L1754.0,253.99 L1736.0,258.76 L1718.7,271.0 L1709.32,294.0 L1709.57,300.0 L1714.3,311.0 L1736.0,333.07 L1766.0,352.1 L1808.83,373.0 L1818.0,379.29 L1846.0,403.75 L1858.35,426.0 L1858.67,468.0 L1852.0,486.06 L1841.69,502.0 L1821.0,521.51 L1798.0,529.23 L1775.0,533.03 Z M622.04,504.0 L640.0,499.55 L667.0,484.37 L686.96,465.0 L700.01,447.0 L706.59,434.0 L713.18,414.0 L716.78,391.0 L716.92,367.0 L712.76,343.0 L703.38,319.0 L689.67,299.0 L674.0,283.32 L645.0,263.81 L621.0,257.13 L593.0,257.17 L566.0,264.63 L547.0,276.33 L521.64,301.0 L510.28,318.0 L503.0,335.81 L500.0,337.36 L494.0,335.8 L491.0,337.65 L490.46,345.0 L497.06,356.0 L496.76,405.0 L504.19,430.0 L511.0,444.4 L521.71,460.0 L542.0,479.72 L566.0,495.83 L578.0,499.83 L596.0,504.01 L622.04,504.0 Z M1270.0,747.06 L1267.0,747.44 L1265.63,744.0 L1267.55,698.0 L1254.86,688.0 L1254.38,683.0 L1257.0,680.12 L1265.0,682.32 L1279.0,681.06 L1282.9,685.0 L1282.0,700.64 L1276.79,709.0 L1276.22,724.0 L1270.0,747.06 Z M1431.0,811.39 L1428.56,810.0 L1427.58,805.0 L1428.45,695.0 L1427.0,691.11 L1421.18,687.0 L1421.71,685.0 L1425.0,683.84 L1442.0,684.34 L1444.97,689.0 L1442.04,744.0 L1439.25,755.0 L1433.0,807.3 L1431.0,811.39 Z M1088.0,706.33 L1083.0,705.34 L1076.0,699.38 L1074.75,696.0 L1076.0,692.79 L1087.0,684.86 L1096.03,692.0 L1097.87,696.0 L1096.95,699.0 L1088.0,706.33 Z M766.0,717.05 L764.0,716.87 L763.33,714.0 L763.71,705.0 L766.4,698.0 L753.02,687.0 L754.0,685.58 L777.0,687.29 L779.99,689.0 L777.48,701.0 L771.14,712.0 L766.0,717.05 Z M539.0,725.54 L535.0,724.15 L532.0,719.67 L508.0,698.99 L503.0,697.58 L495.0,700.86 L492.52,698.0 L508.0,687.06 L531.65,710.0 L538.18,719.0 L539.0,725.54 Z M723.0,707.27 L719.79,705.0 L720.0,695.99 L711.91,688.0 L734.0,687.37 L735.8,692.0 L723.0,707.27 Z M1305.0,805.88 L1302.34,802.0 L1301.64,789.0 L1302.75,700.0 L1298.6,689.0 L1309.0,687.11 L1311.75,689.0 L1312.59,694.0 L1311.26,746.0 L1307.3,781.0 L1307.0,800.21 L1305.0,805.88 Z M898.0,737.06 L894.0,736.85 L894.76,733.0 L911.97,719.0 L929.63,700.0 L927.0,688.02 L934.0,690.89 L945.44,701.0 L945.0,705.96 L939.8,708.0 L904.0,735.74 L898.0,737.06 Z M1484.0,753.07 L1481.68,747.0 L1483.24,702.0 L1481.0,696.96 L1471.73,693.0 L1471.75,690.0 L1474.0,688.81 L1496.0,689.84 L1498.46,693.0 L1488.99,727.0 L1486.83,750.0 L1484.0,753.07 Z M1214.0,755.09 L1207.31,753.0 L1221.16,741.0 L1219.33,733.0 L1220.36,710.0 L1218.14,695.0 L1219.0,691.64 L1221.0,690.97 L1223.0,693.8 L1228.27,720.0 L1228.76,730.0 L1232.49,737.0 L1235.3,751.0 L1232.0,754.71 L1214.0,755.09 Z M531.0,766.1 L529.22,765.0 L529.92,763.0 L542.97,751.0 L550.0,745.66 L560.0,742.64 L587.0,719.35 L595.05,707.0 L593.98,699.0 L596.0,695.49 L599.37,696.0 L613.74,709.0 L613.16,712.0 L573.0,741.88 L555.0,749.75 L541.0,760.15 L534.0,762.54 L531.0,766.1 Z M544.0,730.14 L541.2,730.0 L540.0,726.73 L543.0,727.34 L544.0,730.14 Z M885.0,796.28 L882.0,796.46 L881.55,794.0 L889.0,786.6 L897.0,780.38 L908.0,776.61 L935.0,754.16 L945.4,738.0 L942.11,730.0 L943.0,726.94 L947.4,727.0 L963.25,740.0 L962.0,745.54 L944.0,759.47 L919.0,777.17 L908.0,779.25 L904.0,783.89 L889.0,792.07 L885.0,796.28 Z M705.0,779.04 L701.0,778.23 L702.09,775.0 L726.0,755.51 L737.3,743.0 L738.22,731.0 L744.0,731.94 L754.0,740.73 L754.0,747.17 L721.0,771.19 L705.0,779.04 Z M1402.0,791.16 L1400.48,787.0 L1401.42,751.0 L1398.45,745.0 L1391.05,741.0 L1391.0,736.73 L1412.0,737.65 L1414.99,741.0 L1408.97,762.0 L1408.0,773.14 L1402.0,791.16 Z M871.0,754.09 L867.0,754.95 L865.81,752.0 L874.75,744.0 L883.0,738.67 L891.34,739.0 L890.0,742.24 L875.0,750.03 L871.0,754.09 Z M1137.0,760.39 L1134.0,760.66 L1129.0,755.35 L1125.0,754.44 L1037.0,755.35 L1032.0,754.03 L1031.25,752.0 L1035.0,749.89 L1107.0,744.04 L1135.0,738.42 L1138.53,742.0 L1138.86,757.0 L1137.0,760.39 Z M863.0,791.02 L857.95,790.0 L849.66,783.0 L854.0,775.59 L860.0,771.83 L867.0,774.63 L874.09,781.0 L873.0,784.41 L863.0,791.02 Z M603.0,795.11 L599.36,794.0 L598.77,782.0 L588.34,778.0 L589.0,774.23 L615.0,775.21 L615.15,778.0 L603.0,795.11 Z M1137.0,799.18 L1124.0,790.41 L1044.0,791.26 L1035.58,790.0 L1034.1,788.0 L1039.0,786.04 L1078.0,784.84 L1135.0,777.58 L1137.27,779.0 L1138.55,784.0 L1137.0,799.18 Z M678.0,796.15 L674.0,796.79 L673.21,794.0 L681.81,786.0 L691.0,780.01 L698.0,780.02 L697.32,784.0 L681.0,792.67 L678.0,796.15 Z M1401.0,800.15 L1399.32,799.0 L1401.0,795.84 L1401.0,800.15 Z" fill="#ffffff" fill-rule="evenodd"/>
  </g>
</svg>
